<mxfile host="Electron" modified="2023-12-05T01:20:37.135Z" agent="Mozilla/5.0 (X11; Linux x86_64) AppleWebKit/537.36 (KHTML, like Gecko) draw.io/22.1.2 Chrome/114.0.5735.289 Electron/25.9.4 Safari/537.36" etag="bTXZmTRcxyvTKr1Sab9U" version="22.1.2" type="device">
  <diagram name="Page-1" id="kcUq2tllqv3JeY0_gQGR">
    <mxGraphModel dx="1070" dy="795" grid="1" gridSize="10" guides="1" tooltips="1" connect="1" arrows="1" fold="1" page="1" pageScale="1" pageWidth="850" pageHeight="1100" math="0" shadow="0">
      <root>
        <mxCell id="0" />
        <mxCell id="1" parent="0" />
        <mxCell id="P20s4fGKbTsNfMlG76RD-1" value="System" style="shape=umlLifeline;perimeter=lifelinePerimeter;whiteSpace=wrap;html=1;container=1;dropTarget=0;collapsible=0;recursiveResize=0;outlineConnect=0;portConstraint=eastwest;newEdgeStyle={&quot;curved&quot;:0,&quot;rounded&quot;:0};" vertex="1" parent="1">
          <mxGeometry x="450" y="170" width="100" height="390" as="geometry" />
        </mxCell>
        <mxCell id="P20s4fGKbTsNfMlG76RD-5" value="" style="shape=umlLifeline;perimeter=lifelinePerimeter;whiteSpace=wrap;html=1;container=1;dropTarget=0;collapsible=0;recursiveResize=0;outlineConnect=0;portConstraint=eastwest;newEdgeStyle={&quot;curved&quot;:0,&quot;rounded&quot;:0};participant=umlActor;" vertex="1" parent="1">
          <mxGeometry x="165" y="170" width="20" height="390" as="geometry" />
        </mxCell>
        <mxCell id="P20s4fGKbTsNfMlG76RD-9" value="" style="html=1;points=[[0,0,0,0,5],[0,1,0,0,-5],[1,0,0,0,5],[1,1,0,0,-5]];perimeter=orthogonalPerimeter;outlineConnect=0;targetShapes=umlLifeline;portConstraint=eastwest;newEdgeStyle={&quot;curved&quot;:0,&quot;rounded&quot;:0};" vertex="1" parent="1">
          <mxGeometry x="170" y="240" width="10" height="80" as="geometry" />
        </mxCell>
        <mxCell id="P20s4fGKbTsNfMlG76RD-10" value="" style="html=1;points=[[0,0,0,0,5],[0,1,0,0,-5],[1,0,0,0,5],[1,1,0,0,-5]];perimeter=orthogonalPerimeter;outlineConnect=0;targetShapes=umlLifeline;portConstraint=eastwest;newEdgeStyle={&quot;curved&quot;:0,&quot;rounded&quot;:0};" vertex="1" parent="1">
          <mxGeometry x="495" y="240" width="10" height="80" as="geometry" />
        </mxCell>
        <mxCell id="P20s4fGKbTsNfMlG76RD-11" style="edgeStyle=orthogonalEdgeStyle;rounded=0;orthogonalLoop=1;jettySize=auto;html=1;curved=0;exitX=1;exitY=0;exitDx=0;exitDy=5;exitPerimeter=0;entryX=0;entryY=0;entryDx=0;entryDy=5;entryPerimeter=0;" edge="1" parent="1" source="P20s4fGKbTsNfMlG76RD-9" target="P20s4fGKbTsNfMlG76RD-10">
          <mxGeometry relative="1" as="geometry" />
        </mxCell>
        <mxCell id="P20s4fGKbTsNfMlG76RD-12" value="1. Step 1" style="edgeLabel;html=1;align=center;verticalAlign=middle;resizable=0;points=[];" vertex="1" connectable="0" parent="P20s4fGKbTsNfMlG76RD-11">
          <mxGeometry x="-0.0413" y="3" relative="1" as="geometry">
            <mxPoint y="-12" as="offset" />
          </mxGeometry>
        </mxCell>
        <mxCell id="P20s4fGKbTsNfMlG76RD-13" style="edgeStyle=orthogonalEdgeStyle;rounded=0;orthogonalLoop=1;jettySize=auto;html=1;curved=0;exitX=1;exitY=0;exitDx=0;exitDy=5;exitPerimeter=0;entryX=1;entryY=1;entryDx=0;entryDy=-5;entryPerimeter=0;" edge="1" parent="1" source="P20s4fGKbTsNfMlG76RD-10" target="P20s4fGKbTsNfMlG76RD-10">
          <mxGeometry relative="1" as="geometry" />
        </mxCell>
        <mxCell id="P20s4fGKbTsNfMlG76RD-14" value="2. Step 2" style="edgeLabel;html=1;align=center;verticalAlign=middle;resizable=0;points=[];" vertex="1" connectable="0" parent="P20s4fGKbTsNfMlG76RD-13">
          <mxGeometry x="0.1091" y="1" relative="1" as="geometry">
            <mxPoint x="74" y="-6" as="offset" />
          </mxGeometry>
        </mxCell>
        <mxCell id="P20s4fGKbTsNfMlG76RD-15" style="edgeStyle=orthogonalEdgeStyle;rounded=0;orthogonalLoop=1;jettySize=auto;html=1;curved=0;exitX=0;exitY=1;exitDx=0;exitDy=-5;exitPerimeter=0;entryX=1;entryY=1;entryDx=0;entryDy=-5;entryPerimeter=0;" edge="1" parent="1" source="P20s4fGKbTsNfMlG76RD-10" target="P20s4fGKbTsNfMlG76RD-9">
          <mxGeometry relative="1" as="geometry" />
        </mxCell>
        <mxCell id="P20s4fGKbTsNfMlG76RD-16" value="3. Step 3" style="edgeLabel;html=1;align=center;verticalAlign=middle;resizable=0;points=[];" vertex="1" connectable="0" parent="P20s4fGKbTsNfMlG76RD-15">
          <mxGeometry x="0.054" relative="1" as="geometry">
            <mxPoint y="-15" as="offset" />
          </mxGeometry>
        </mxCell>
        <mxCell id="P20s4fGKbTsNfMlG76RD-24" value="Actor" style="text;html=1;align=center;verticalAlign=middle;resizable=0;points=[];autosize=1;strokeColor=none;fillColor=none;" vertex="1" parent="1">
          <mxGeometry x="150" y="145" width="50" height="30" as="geometry" />
        </mxCell>
      </root>
    </mxGraphModel>
  </diagram>
</mxfile>
